<?xml version="1.0" encoding="UTF-8" standalone="no"?>
<!DOCTYPE svg PUBLIC "-//W3C//DTD SVG 1.1//EN" "http://www.w3.org/Graphics/SVG/1.1/DTD/svg11.dtd">
<svg xmlns="http://www.w3.org/2000/svg" xmlns:xlink="http://www.w3.org/1999/xlink" version="1.1" width="150pt" height="150pt" viewBox="0 0 292.091 292.091">
<g enable-background="new">
<g id="Layer-1" data-name="Warstwa 1">
<clipPath id="cp0">
<path transform="matrix(1,0,0,-1,0,292.091)" d="M 0 292.091 L 292.091 292.091 L 292.091 0 L 0 0 Z "/>
</clipPath>
<g clip-path="url(#cp0)">
<path transform="matrix(1,0,0,-1,287.2975,179.46772)" d="M 0 0 C -.644 7.669 -2.672 15.104 -5.13 22.374 C -10.331 37.761 -17.26 52.412 -25.316 66.468 C -31.585 77.404 -38.615 87.905 -45.301 98.602 C -46.505 100.527 -47.687 102.467 -48.868 104.382 C -45.106 110.647 -42.686 117.061 -40.253 123.452 C -38.183 128.888 -37.086 134.517 -37.297 140.415 C -37.346 141.787 -37.613 143.007 -38.075 144.104 C -37.801 144.802 -37.642 145.529 -37.617 146.315 C -37.398 153.44 -40.268 155.875 -45.571 157.892 C -55.609 161.711 -60.873 160.51 -68.625 159.704 C -72.066 159.347 -75.74 158.117 -78.768 156.86 C -80.904 158.046 -83.087 159.162 -85.361 160 C -93.934 163.161 -102.821 165.188 -111.82 166.733 C -117.299 167.673 -137.038 169.432 -151.208 168.75 C -167.038 167.989 -176.323 166.01 -188.447 162.675 C -195.173 160.825 -201.848 159.296 -207.958 155.97 C -207.988 155.954 -208.014 155.947 -208.044 155.931 C -211.351 157.453 -216.011 159.258 -220.306 159.704 C -228.058 160.51 -233.322 161.711 -243.36 157.892 C -248.663 155.875 -251.534 153.44 -251.314 146.315 C -251.312 146.244 -251.294 146.179 -251.289 146.109 C -251.873 144.635 -252.286 143.064 -252.459 141.363 C -253.09 135.144 -253.023 128.974 -251.361 122.835 C -250.102 118.188 -248.846 113.589 -246.201 109.516 C -245.027 107.71 -244.948 106.2 -246.398 104.413 C -249.042 101.155 -250.888 97.383 -252.76 93.642 C -253.951 91.263 -255.212 88.918 -256.442 86.559 C -259.395 80.896 -262.191 75.164 -264.183 69.075 C -265.364 65.465 -266.544 61.854 -267.756 58.254 C -270.691 49.541 -273.944 40.921 -276.488 32.095 C -278.31 25.776 -279.453 19.225 -280.428 12.706 C -281.72 4.083 -282.917 -4.58 -282.594 -13.351 C -282.361 -19.678 -281.587 -25.917 -279.403 -31.905 C -276.512 -39.831 -272.352 -47.058 -267.109 -53.643 C -265.509 -55.653 -263.712 -57.56 -261.753 -59.218 C -258.631 -61.861 -255.358 -64.339 -252.042 -66.739 C -245.093 -71.77 -238.319 -77.073 -230.238 -80.323 C -223.691 -82.956 -217.228 -85.796 -210.718 -88.522 C -209.465 -89.047 -208.102 -89.338 -206.898 -89.951 C -200.996 -92.957 -194.544 -93.841 -188.175 -95.419 C -182.031 -96.942 -168.272 -98.582 -162.624 -98.921 C -146.825 -99.87 -133.398 -100.595 -125.707 -98.951 C -119.259 -97.572 -112.997 -95.403 -106.692 -93.462 C -103.655 -92.528 -100.721 -91.261 -97.739 -90.147 C -91.841 -87.944 -85.808 -86.04 -80.597 -82.321 C -79.735 -81.705 -78.76 -81.248 -77.852 -80.694 C -75.909 -79.511 -73.991 -78.287 -72.03 -77.136 C -71.466 -76.805 -70.805 -76.588 -70.161 -76.45 C -66.681 -75.707 -63.105 -75.285 -59.728 -74.226 C -54.38 -72.55 -31.927 -62.965 -26.776 -58.683 C -20.755 -53.678 -14.703 -48.751 -9.671 -42.663 C -3.653 -35.383 -.103 -27.093 .463 -17.751 C .82 -11.862 .495 -5.893 0 0 " fill="#d6dae8"/>
<path transform="matrix(1,0,0,-1,34.2794,241.95871)" d="M 0 0 C -2.4 -2.793 29.522 -19.391 33.232 -21.008 C 38.354 -23.241 78.668 -36.502 110.142 -36.506 L 112.245 -36.506 C 142.032 -36.506 178.26 -14.974 180.523 -13.649 L 181.828 -12.7 C 189.439 -6.704 197.292 4.198 189.988 18.157 C 185.71 26.331 178.402 31.571 160.227 31.571 C 155.528 31.571 149.93 30.762 143.493 30.146 C 134.664 29.301 120.681 25.278 104.656 20.055 C 77.025 11.052 42.253 -.237 11.513 -.237 C 8.126 -.237 2.941 1.124 0 0 " fill="#1c1cf0"/>
<path transform="matrix(1,0,0,-1,239.1556,79.4483)" d="M 0 0 C 0 0 21.088 -31.424 29.061 -47.317 C 38.86 -66.848 46.109 -84.365 47.116 -108.728 C 48.122 -133.091 32.618 -148.394 22.35 -155.441 C 22.35 -155.441 31.008 -146.45 32.216 -127.69 C 32.216 -127.69 36.041 -108.728 26.175 -68.056 C 21.557 -49.015 1.611 -4.43 0 0 " fill="#b8bbc6"/>
<path transform="matrix(1,0,0,-1,43.1586,74.99121)" d="M 0 0 C 0 0 7.541 -5.117 5.649 -6.219 C -2.935 -11.213 -26.493 -65.197 -33.205 -85.735 C -33.205 -85.735 -15.656 -16.685 0 0 " fill="#ffffff"/>
<path transform="matrix(1,0,0,-1,140.7767,62.049608)" d="M 0 0 C -.25 -2.028 -2.972 -2.611 -4.139 -.935 C -4.76 -.042 -5.233 .94 -5.723 1.889 C -6.488 3.373 -7.057 4.956 -7.704 6.503 C -8.414 8.204 -8.301 10.138 -7.343 11.714 C -6.241 13.527 -5.173 15.36 -4.126 17.206 C -2.886 19.391 -1.883 21.657 -1.639 24.22 C -1.5 25.672 -.728 26.232 .44 26.028 C 1.664 25.813 2.018 25.028 1.716 23.377 C 1.519 22.303 1.397 21.211 1.345 20.121 C 1.159 16.142 1.069 12.157 .827 8.182 C .66 5.464 .299 2.756 .005 .046 C .004 .03 .002 .015 0 0 " fill="#313d49"/>
<path transform="matrix(1,0,0,-1,93.5728,44.610399)" d="M 0 0 C -.911 -.036 -1.279 1.211 -.508 1.699 C .44 2.299 1.507 2.393 2.484 2.551 C 7.347 3.339 11.947 2.285 16.223 -.012 C 20.501 -2.311 24.709 -4.75 28.87 -7.256 C 31.968 -9.121 34.366 -11.776 36.474 -14.693 C 37.088 -15.543 37.081 -16.361 36.424 -17.194 C 35.717 -18.091 35.191 -18.189 34.366 -17.365 C 33.077 -16.077 31.906 -14.669 30.584 -13.419 C 29.605 -12.493 28.526 -11.642 27.388 -10.921 C 22.052 -7.54 16.366 -4.842 10.569 -2.351 C 7.184 -.897 3.752 .177 .015 .001 C .01 0 .005 0 0 0 " fill="#313d49"/>
<path transform="matrix(1,0,0,-1,120.4854,41.2834)" d="M 0 0 C -.365 .606 -.392 1.359 -.141 2.021 C .272 3.11 .659 4.196 1.224 5.179 C 2.128 6.751 3.349 8.139 4.307 9.685 C 4.934 10.696 5.421 11.816 5.818 12.941 C 6.245 14.155 6.782 14.596 7.96 14.147 C 8.642 13.887 9.355 13.47 9.821 12.924 C 11.332 11.156 12.166 9.058 12.427 6.743 C 12.522 5.904 12.221 5.257 11.408 4.909 C 11.199 4.819 10.994 4.71 10.777 4.649 C 7.444 3.726 4.406 2.244 1.739 .01 C 1.393 -.28 .713 -.488 .342 -.342 C .207 -.289 .1 -.165 0 0 " fill="#313d49"/>
<path transform="matrix(1,0,0,-1,114.6169,35.321809)" d="M 0 0 C -1.644 -2.461 -4.964 -3.269 -7.476 -1.704 C -7.49 -1.696 -7.504 -1.687 -7.517 -1.678 C -8.977 -.761 -8.964 .548 -7.527 1.347 C -4.268 3.159 -1.103 5.074 1.626 7.659 C 1.943 7.959 3.07 8.499 3.588 8.358 C 4.478 8.045 3.374 5.151 3.021 4.6 C 2.043 3.072 1.041 1.559 0 0 " fill="#313d49"/>
<path transform="matrix(1,0,0,-1,165.7782,70.5956)" d="M 0 0 C 0 2.08 .246 4.088 .698 5.988 C 6.578 10.349 15.113 15.108 21.103 17.003 C 22.692 17.506 24.182 18.016 25.657 18.426 C 30.826 14.771 33.833 9.492 34.312 0 C 34.952 -12.702 32.124 -11.871 28.646 -15.753 C 24.516 -16.853 16.956 -18.637 9.994 -19.101 C 9.889 -19.099 9.784 -19.101 9.679 -19.1 C 3.95 -15.663 0 -8.403 0 0 " fill="#eeeeee"/>
<path transform="matrix(1,0,0,-1,148.2979,62.049608)" d="M 0 0 C .25 -2.028 2.972 -2.611 4.139 -.935 C 4.76 -.042 5.233 .94 5.723 1.889 C 6.488 3.373 7.057 4.956 7.704 6.503 C 8.414 8.204 8.301 10.138 7.343 11.714 C 6.241 13.527 5.173 15.36 4.126 17.206 C 2.886 19.391 1.883 21.657 1.639 24.22 C 1.5 25.672 .728 26.232 -.44 26.028 C -1.664 25.813 -2.018 25.028 -1.716 23.377 C -1.519 22.303 -1.397 21.211 -1.345 20.121 C -1.159 16.142 -1.069 12.157 -.826 8.182 C -.66 5.464 -.299 2.756 -.005 .046 C -.004 .03 -.002 .015 0 0 " fill="#313d49"/>
<path transform="matrix(1,0,0,-1,195.5017,44.610399)" d="M 0 0 C .911 -.036 1.279 1.211 .508 1.699 C -.44 2.299 -1.507 2.393 -2.484 2.551 C -7.347 3.339 -11.947 2.285 -16.223 -.012 C -20.501 -2.311 -24.709 -4.75 -28.87 -7.256 C -31.968 -9.121 -34.366 -11.776 -36.474 -14.693 C -37.088 -15.543 -37.081 -16.361 -36.424 -17.194 C -35.717 -18.091 -35.191 -18.189 -34.366 -17.365 C -33.077 -16.077 -31.906 -14.669 -30.584 -13.419 C -29.605 -12.493 -28.526 -11.642 -27.388 -10.921 C -22.052 -7.54 -16.366 -4.842 -10.569 -2.351 C -7.184 -.897 -3.752 .177 -.015 .001 C -.01 0 -.005 0 0 0 " fill="#313d49"/>
<path transform="matrix(1,0,0,-1,168.5891,41.2834)" d="M 0 0 C .365 .606 .392 1.359 .141 2.021 C -.272 3.11 -.659 4.196 -1.224 5.179 C -2.128 6.751 -3.349 8.139 -4.307 9.685 C -4.934 10.696 -5.421 11.816 -5.818 12.941 C -6.245 14.155 -6.782 14.596 -7.96 14.147 C -8.642 13.887 -9.355 13.47 -9.821 12.924 C -11.332 11.156 -12.166 9.058 -12.427 6.743 C -12.522 5.904 -12.221 5.257 -11.408 4.909 C -11.199 4.819 -10.994 4.71 -10.777 4.649 C -7.444 3.726 -4.406 2.244 -1.739 .01 C -1.393 -.28 -.713 -.488 -.342 -.342 C -.207 -.289 -.1 -.165 0 0 " fill="#313d49"/>
<path transform="matrix(1,0,0,-1,174.4577,35.321809)" d="M 0 0 C 1.644 -2.461 4.964 -3.269 7.476 -1.704 C 7.49 -1.696 7.504 -1.687 7.517 -1.678 C 8.977 -.761 8.964 .548 7.527 1.347 C 4.268 3.159 1.103 5.074 -1.626 7.659 C -1.943 7.959 -3.07 8.499 -3.588 8.358 C -4.478 8.045 -3.374 5.151 -3.021 4.6 C -2.043 3.072 -1.041 1.559 0 0 " fill="#313d49"/>
<path transform="matrix(1,0,0,-1,165.7802,70.6644)" d="M 0 0 C .723 .662 1.618 1.394 2.61 2.156 C 4.826 -7.15 9.519 -12.936 17.633 -11.42 C 27.662 -9.545 31.074 -1.63 27.51 14.58 C 28.086 14.723 28.634 14.845 29.137 14.925 C 32.062 11.094 33.776 5.852 34.155 .069 C 34.331 -2.629 34.29 -4.707 34.083 -6.376 C 33.546 -7.438 32.937 -8.408 32.222 -9.303 C 31.572 -10.116 30.944 -10.567 30.121 -10.813 C 29.637 -10.958 28.739 -11.216 27.544 -11.535 C 23.787 -12.535 16.518 -14.275 9.858 -14.738 L 9.825 -14.738 L 9.738 -14.737 C 9.052 -14.728 6.776 -14.533 4.568 -14.33 C 1.748 -10.562 .014 -5.535 0 0 M 44.244 -17.444 C 40.811 -19.366 38.214 -20.677 34.401 -21.938 C 27.019 -24.381 17.915 -24.5 10.211 -24.159 C 9.157 -24.113 8.098 -23.904 7.069 -23.658 C 5.215 -23.215 4.183 -21.355 4.623 -19.027 C 6.271 -19.027 7.973 -19.006 9.677 -19.031 C 9.665 -19.024 9.654 -19.015 9.642 -19.008 C 9.652 -19.009 9.667 -19.009 9.677 -19.01 C 9.782 -19.011 9.887 -19.009 9.992 -19.011 C 16.954 -18.547 24.514 -16.763 28.644 -15.663 C 29.896 -15.33 30.836 -15.059 31.344 -14.907 C 33.073 -14.39 34.414 -13.403 35.559 -11.971 C 38.767 -7.959 40.066 -3.24 40.793 1.687 C 41.304 5.144 41.624 8.608 40.856 12.106 C 39.689 17.416 38.058 18.617 32.958 19.247 C 32.32 19.325 31.699 19.361 31.091 19.361 C 30.453 19.361 29.832 19.31 29.217 19.238 C 29.066 19.222 28.915 19.2 28.764 19.18 C 28.455 19.136 28.147 19.085 27.841 19.027 C 27.058 18.883 26.279 18.712 25.5 18.495 C 25.508 18.489 25.515 18.482 25.523 18.476 C 24.09 18.072 22.643 17.581 21.101 17.093 C 15.111 15.198 6.576 10.439 .696 6.078 C -1.596 4.379 -3.485 2.74 -4.662 1.355 C -7.21 -2.079 -9.538 -5.67 -10.29 -9.98 C -10.601 -11.763 -10.633 -13.607 -10.655 -15.425 C -10.655 -15.43 -10.655 -15.433 -10.655 -15.437 C -10.655 -15.44 -10.655 -15.443 -10.655 -15.446 C -10.672 -16.924 -10.464 -17.081 -8.929 -17.256 C -6.145 -17.572 -3.355 -17.845 -.569 -18.146 C -.2 -18.186 .162 -18.287 .643 -18.383 C .738 -18.823 .838 -19.046 .824 -19.261 C .625 -22.305 -.327 -23.03 -3.281 -22.356 C -4.682 -22.037 -6.055 -21.578 -7.466 -21.324 C -9.133 -21.024 -9.918 -21.944 -9.471 -23.561 C -9.11 -24.867 -8.379 -26.01 -7.124 -26.493 C -5.58 -27.087 -3.943 -27.675 -2.316 -27.776 C 2.071 -28.046 6.491 -28.34 10.869 -28.1 C 16.757 -27.777 23.629 -27.488 29.401 -25.608 C 35.572 -23.599 40.372 -21.835 45.684 -18.244 C 45.931 -18.077 46.15 -17.857 46.348 -17.632 C 46.434 -17.534 46.434 -17.362 46.502 -17.125 C 45.656 -16.541 44.912 -17.07 44.244 -17.444 " fill="#313d49"/>
<path transform="matrix(1,0,0,-1,143.4736,131.52)" d="M 0 0 C 3.999 .154 7.66 -1.045 11.296 -2.452 C 19.449 -5.607 27.524 -8.928 35.036 -13.458 C 36.596 -14.398 38.124 -15.41 39.571 -16.515 C 40.865 -17.502 41.029 -18.3 40.502 -19.466 C 39.966 -20.655 39.306 -20.886 38.166 -20.182 C 37.198 -19.583 36.3 -18.874 35.347 -18.25 C 30.874 -15.322 26.077 -13.055 21.029 -11.318 C 16.726 -9.838 12.404 -8.412 8.098 -6.941 C 3.994 -5.539 -.251 -5.242 -4.504 -5.655 C -8.267 -6.02 -12.012 -6.666 -15.726 -7.388 C -17.569 -7.746 -19.339 -8.512 -21.115 -9.168 C -22.837 -9.805 -23.553 -9.517 -24.486 -7.64 C -25.211 -6.183 -25.024 -5.06 -23.517 -4.441 C -21.217 -3.498 -18.823 -2.736 -16.408 -2.144 C -14.211 -1.606 -11.941 -1.34 -9.69 -1.059 C -6.466 -.656 -3.231 -.348 0 0 " fill="#313d49"/>
<path transform="matrix(1,0,0,-1,141.4834,125.259708)" d="M 0 0 C -1.335 1.128 .808 6.586 .104 7.14 C -.872 7.73 -1.395 6.196 -1.749 5.781 C -1.766 5.76 -1.787 5.746 -1.81 5.733 C -3.007 5.081 -3.837 5.167 -4.773 6.11 C -5.632 6.975 -5.79 7.902 -5.128 9.001 C -3.828 11.158 -1.768 12.202 .602 12.741 C 4.4 13.605 7.747 12.784 10.701 10.189 C 12.211 8.863 12.885 7.058 11.438 5.697 C 10.977 5.263 9.569 3.806 8.299 5.182 C 7.532 6.014 7.611 8.011 5.92 7.477 C 4.942 7.169 6.751 .395 4.797 -.178 C 2.811 -.761 .732 -.618 0 0 " fill="#313d49"/>
<path transform="matrix(1,0,0,-1,73.3698,106.6785)" d="M 0 0 C 1.639 0 3.162 .216 4.604 -.035 C 13.858 -1.643 23.037 -3.606 32.038 -6.328 C 34.068 -6.942 36.108 -7.531 38.104 -8.245 C 38.556 -8.406 38.842 -9.035 39.205 -9.449 C 38.714 -9.722 38.248 -10.134 37.725 -10.228 C 37.244 -10.313 36.701 -10.059 36.187 -9.949 C 28.408 -8.29 20.642 -6.572 12.846 -4.998 C 9.51 -4.325 6.11 -3.967 2.744 -3.432 C .778 -3.12 .016 -2.216 0 0 " fill="#313d49"/>
<path transform="matrix(1,0,0,-1,102.4462,123.4438)" d="M 0 0 C -1.519 -.215 -3.032 -.486 -4.557 -.634 C -9.303 -1.093 -14.058 -1.464 -18.802 -1.947 C -23.099 -2.386 -27.398 -2.837 -31.673 -3.447 C -36.849 -4.185 -42 -5.107 -47.166 -5.919 C -48.059 -6.06 -48.987 -6.165 -49.88 -6.084 C -51.277 -5.956 -51.831 -5.224 -52.129 -3.355 C -51.631 -3.27 -51.134 -3.161 -50.631 -3.105 C -45.439 -2.528 -40.247 -1.956 -35.055 -1.388 C -31.892 -1.042 -28.731 -.682 -25.565 -.368 C -20.894 .095 -16.228 .651 -11.546 .926 C -7.984 1.134 -4.401 .973 -.828 .952 C -.567 .95 -.307 .746 -.046 .637 C -.031 .424 -.015 .212 0 0 " fill="#313d49"/>
<path transform="matrix(1,0,0,-1,111.6282,142.054)" d="M 0 0 C -.043 1.797 1.004 3.363 2.152 3.763 C 2.98 4.051 3.655 3.804 4.112 3.068 C 5.05 1.558 4.509 -1.184 3.093 -2.338 C 2.445 -2.866 1.749 -2.876 1.291 -2.257 C .682 -1.433 .261 -.47 0 0 " fill="#313d49"/>
<path transform="matrix(1,0,0,-1,122.9337,115.31261)" d="M 0 0 C 0 -.89 -.721 -1.611 -1.611 -1.611 C -2.5 -1.611 -3.222 -.89 -3.222 0 C -3.222 .89 -2.5 1.611 -1.611 1.611 C -.721 1.611 0 .89 0 0 " fill="#313d49"/>
<path transform="matrix(1,0,0,-1,112.0609,123.0645)" d="M 0 0 C 0 -.89 -.721 -1.611 -1.611 -1.611 C -2.5 -1.611 -3.222 -.89 -3.222 0 C -3.222 .89 -2.5 1.611 -1.611 1.611 C -.721 1.611 0 .89 0 0 " fill="#313d49"/>
<path transform="matrix(1,0,0,-1,212.0838,108.3136)" d="M 0 0 C -1.639 0 -3.162 .216 -4.604 -.035 C -13.858 -1.643 -23.037 -3.606 -32.038 -6.328 C -34.068 -6.942 -36.108 -7.531 -38.104 -8.245 C -38.556 -8.406 -38.842 -9.035 -39.205 -9.449 C -38.714 -9.722 -38.248 -10.134 -37.725 -10.228 C -37.244 -10.313 -36.701 -10.059 -36.187 -9.949 C -28.408 -8.29 -20.642 -6.572 -12.846 -4.998 C -9.51 -4.325 -6.11 -3.967 -2.744 -3.432 C -.778 -3.12 -.016 -2.216 0 0 " fill="#313d49"/>
<path transform="matrix(1,0,0,-1,183.0074,125.0789)" d="M 0 0 C 1.519 -.215 3.032 -.486 4.557 -.634 C 9.303 -1.093 14.058 -1.464 18.802 -1.947 C 23.099 -2.386 27.398 -2.837 31.673 -3.447 C 36.849 -4.185 42 -5.107 47.166 -5.919 C 48.059 -6.06 48.987 -6.165 49.88 -6.084 C 51.277 -5.956 51.831 -5.224 52.129 -3.355 C 51.631 -3.27 51.134 -3.161 50.631 -3.105 C 45.439 -2.528 40.247 -1.956 35.055 -1.388 C 31.892 -1.042 28.731 -.682 25.565 -.368 C 20.894 .095 16.228 .651 11.546 .926 C 7.984 1.134 4.401 .973 .828 .952 C .567 .95 .307 .746 .046 .637 C .031 .424 .015 .212 0 0 " fill="#313d49"/>
<path transform="matrix(1,0,0,-1,162.5199,116.94771)" d="M 0 0 C 0 -.89 .721 -1.611 1.611 -1.611 C 2.5 -1.611 3.222 -.89 3.222 0 C 3.222 .89 2.5 1.611 1.611 1.611 C .721 1.611 0 .89 0 0 " fill="#313d49"/>
<path transform="matrix(1,0,0,-1,173.3927,124.6996)" d="M 0 0 C 0 -.89 .721 -1.611 1.611 -1.611 C 2.5 -1.611 3.222 -.89 3.222 0 C 3.222 .89 2.5 1.611 1.611 1.611 C .721 1.611 0 .89 0 0 " fill="#313d49"/>
<path transform="matrix(1,0,0,-1,142.4702,133.0263)" d="M 0 0 C -.095 .656 -.257 8.982 1.022 9.819 L 1.803 8.628 L 3.207 8.391 C 3.046 7.392 2.469 2.829 2.819 .408 Z " fill="#313d49"/>
<path transform="matrix(1,0,0,-1,216.4846,214.4321)" d="M 0 0 C 0 0 4.55 -12.965 .724 -21.867 C -3.102 -30.768 -21.022 -43.478 -43.707 -50.055 C -69.591 -57.56 -116.11 -57.368 -130.883 -55.02 C -145.656 -52.673 -92.538 -65.737 -70.204 -63.97 C -47.869 -62.202 -9.327 -48.075 -2.737 -42.544 C 3.854 -37.013 13.725 -26.086 9.54 -13.808 C 5.355 -1.53 0 0 0 0 " fill="#1c1ca0"/>
<path transform="matrix(1,0,0,-1,251.3837,30.794312)" d="M 0 0 C -.484 6.432 -3.917 9.093 -9.194 11.101 C -18.599 14.678 -24.227 14.04 -30.744 13.302 C -31.53 13.212 -32.337 13.121 -33.173 13.034 C -41.264 12.193 -50.311 6.952 -50.692 6.729 C -51.652 6.168 -51.976 4.935 -51.415 3.975 C -50.854 3.016 -49.621 2.691 -48.661 3.252 C -48.575 3.303 -39.993 8.277 -32.757 9.028 C -31.908 9.117 -31.089 9.21 -30.29 9.3 C -23.803 10.036 -19.116 10.566 -10.626 7.337 C -5.873 5.529 -3.784 3.709 -3.97 -2.296 C -4.037 -4.481 -5.59 -6.169 -8.871 -9.245 C -12.503 -12.65 -18.317 -21.987 -19.598 -26.47 C -19.809 -27.21 -20.025 -28.087 -20.26 -29.045 C -21.237 -33.029 -22.714 -39.049 -25.649 -40.395 C -29.815 -42.304 -32.597 -39.163 -33.599 -37.725 C -34.235 -36.813 -35.49 -36.589 -36.402 -37.224 C -36.673 -37.413 -36.862 -37.664 -37.007 -37.937 C -39.131 -40.485 -39.251 -49.804 -36.484 -52.077 C -32.725 -55.165 -25.189 -57.13 -18.64 -53.285 C -14.333 -50.757 -10.462 -47.014 -4.646 -37.882 C -.269 -31.01 .604 -17.764 1.092 -11.203 C 1.452 -6.371 .762 -2.57 0 0 " fill="#313d49"/>
<path transform="matrix(1,0,0,-1,285.7513,196.56)" d="M 0 0 C -.524 -8.626 -3.779 -16.618 -9.676 -23.751 C -14.333 -29.383 -28.503 -46.523 -58.705 -54.653 C -60.274 -55.075 -61.902 -55.419 -63.526 -55.744 C -55.732 -46.887 -54.433 -36.463 -60.017 -25.791 C -64.786 -16.677 -71.767 -11.028 -91.8 -11.028 C -96.629 -11.028 -102.169 -11.333 -108.736 -11.962 C -118.006 -12.849 -132.042 -17.423 -148.294 -22.719 C -175.654 -31.634 -209.705 -42.731 -239.806 -42.731 C -246.168 -42.731 -252.163 -42.215 -257.646 -41.213 C -263.116 -36.268 -270.156 -27.883 -275.991 -13.519 C -278.297 -7.842 -278.817 -1.575 -279.035 4.352 C -279.346 12.785 -278.248 20.974 -276.891 30.038 C -275.995 36.023 -267.755 69.578 -253.05 103.385 C -251.924 105.972 -245.731 117.764 -243.288 120.774 C -243.204 120.878 -243.036 121.099 -242.832 121.371 C -239.305 116.753 -236.432 114.297 -233.338 112.48 C -226.789 108.636 -219.252 110.601 -215.494 113.689 C -212.727 115.961 -212.846 125.281 -214.971 127.829 C -215.116 128.102 -215.305 128.353 -215.575 128.541 C -216.487 129.177 -217.743 128.953 -218.379 128.04 C -219.381 126.602 -222.163 123.461 -226.328 125.371 C -229.243 126.706 -230.718 132.647 -231.695 136.63 C -231.703 136.66 -231.71 136.691 -231.718 136.72 C -231.952 137.678 -232.168 138.556 -232.379 139.295 C -232.541 139.861 -232.776 140.505 -233.069 141.204 C -235.095 146.042 -239.933 153.545 -243.106 156.52 C -246.388 159.596 -247.941 161.285 -248.008 163.469 C -248.194 169.475 -246.104 171.295 -241.352 173.103 C -232.861 176.332 -228.174 175.801 -221.688 175.066 C -220.888 174.975 -220.07 174.883 -219.221 174.794 C -216.09 174.469 -212.71 173.353 -209.872 172.188 C -208.618 171.673 -207.468 171.148 -206.496 170.678 C -204.584 169.752 -203.349 169.037 -203.317 169.018 C -202.357 168.457 -201.123 168.781 -200.562 169.741 C -200.002 170.701 -200.325 171.934 -201.285 172.495 C -201.365 172.542 -201.846 172.818 -202.603 173.221 C -198.35 175.123 -193.845 176.347 -189.121 177.617 C -188.205 177.863 -187.286 178.11 -186.367 178.363 C -173.99 181.768 -164.9 183.631 -149.565 184.368 C -147.484 184.468 -145.176 184.519 -142.706 184.519 C -129.644 184.519 -115.091 183.146 -110.614 182.378 C -100.274 180.603 -91.979 178.494 -84.511 175.74 C -83.465 175.354 -82.441 174.892 -81.417 174.397 C -83.525 173.385 -84.916 172.579 -85.06 172.495 C -86.02 171.934 -86.343 170.701 -85.783 169.741 C -85.222 168.781 -83.988 168.457 -83.028 169.018 C -82.982 169.045 -80.41 170.532 -76.916 172.002 L -73.099 173.432 C -71.138 174.073 -69.083 174.591 -67.124 174.794 C -66.276 174.883 -65.457 174.975 -64.658 175.066 C -58.171 175.801 -53.484 176.332 -44.993 173.103 C -40.241 171.295 -38.152 169.475 -38.337 163.469 C -38.404 161.285 -39.957 159.596 -43.239 156.52 C -46.87 153.116 -52.684 143.779 -53.966 139.295 C -54.002 139.167 -54.041 139.012 -54.078 138.876 L -55.526 133.258 C -56.489 129.88 -57.857 126.361 -60.017 125.371 C -64.182 123.461 -66.964 126.602 -67.967 128.04 C -68.602 128.953 -69.858 129.177 -70.77 128.541 C -71.04 128.353 -71.229 128.102 -71.374 127.829 C -73.499 125.281 -73.618 115.961 -70.851 113.689 C -67.093 110.601 -59.556 108.636 -53.007 112.48 C -50.945 113.692 -48.98 115.19 -46.855 117.417 C -46.392 116.665 -45.931 115.914 -45.463 115.164 C -43.382 111.835 -41.234 108.473 -39.158 105.223 C -34.565 98.031 -29.816 90.595 -25.517 83.096 C -16.92 68.096 -10.369 53.79 -5.491 39.359 C -2.553 30.667 -1.002 23.913 -.46 17.461 C -.024 12.267 .371 6.131 0 0 M -71.432 -57.689 L -71.625 -57.843 C -71.772 -57.929 -72.062 -58.108 -72.474 -58.361 C -73.171 -58.78 -73.867 -59.202 -74.559 -59.63 C -75.634 -60.277 -76.966 -61.063 -78.532 -61.957 C -82.982 -64.203 -98.252 -71.586 -105.743 -73.91 C -118.201 -77.776 -129.824 -79.645 -142.155 -79.798 C -158.9 -79.465 -177.784 -76.148 -192.433 -72.845 C -195.952 -71.955 -199.552 -70.99 -203.259 -69.927 C -209.985 -67.999 -231.155 -60.295 -248.817 -47.828 C -249.212 -47.281 -249.489 -46.785 -249.661 -46.341 C -246.485 -46.618 -243.192 -46.758 -239.806 -46.758 C -209.065 -46.758 -174.677 -35.551 -147.046 -26.548 C -131.021 -21.326 -117.181 -16.816 -108.352 -15.97 C -101.914 -15.354 -96.5 -15.055 -91.8 -15.055 C -73.626 -15.055 -67.862 -19.484 -63.585 -27.658 C -56.281 -41.616 -63.821 -51.693 -71.432 -57.689 M 3.553 17.797 C 2.983 24.588 1.37 31.635 -1.676 40.649 C -6.639 55.33 -13.294 69.87 -22.023 85.098 C -26.37 92.681 -31.146 100.159 -35.764 107.39 C -37.835 110.633 -39.977 113.986 -42.048 117.299 C -42.738 118.402 -43.418 119.509 -44.097 120.615 C -42.55 122.575 -40.883 124.948 -39.014 127.884 C -34.637 134.756 -33.764 148.002 -33.275 154.562 C -32.915 159.395 -33.606 163.195 -34.368 165.766 C -34.852 172.198 -38.284 174.859 -43.562 176.867 C -52.967 180.444 -58.594 179.805 -65.111 179.067 C -65.898 178.978 -66.704 178.886 -67.54 178.8 C -70.609 178.481 -73.813 177.528 -76.632 176.457 C -78.761 177.626 -80.895 178.699 -83.118 179.518 C -90.823 182.36 -99.343 184.529 -109.933 186.347 C -114.531 187.136 -129.415 188.546 -142.706 188.546 C -145.24 188.546 -147.613 188.494 -149.758 188.391 C -165.47 187.636 -174.773 185.729 -187.435 182.246 C -188.347 181.995 -189.258 181.751 -190.167 181.506 C -195.876 179.971 -201.777 178.38 -207.223 175.445 C -210.535 176.88 -214.787 178.382 -218.805 178.8 C -219.641 178.886 -220.447 178.978 -221.234 179.067 C -227.751 179.805 -233.378 180.444 -242.783 176.867 C -248.061 174.859 -251.493 172.198 -251.978 165.766 C -252.739 163.195 -253.43 159.395 -253.07 154.562 C -252.581 148.002 -251.708 134.756 -247.331 127.884 C -246.626 126.776 -245.95 125.75 -245.297 124.794 C -245.944 123.929 -246.339 123.405 -246.415 123.311 C -249.276 119.786 -255.681 107.431 -256.743 104.991 C -271.815 70.338 -279.923 36.984 -280.874 30.634 C -282.261 21.367 -283.383 12.982 -283.059 4.204 C -282.827 -2.092 -282.263 -8.78 -279.722 -15.033 C -270.208 -38.454 -257.509 -46.865 -252.728 -50.031 C -252.302 -50.314 -251.944 -50.549 -251.665 -50.749 C -240.352 -58.825 -228.218 -64.672 -219.069 -68.459 C -219.064 -68.461 -219.058 -68.464 -219.053 -68.466 C -218.896 -68.535 -218.7 -68.615 -218.494 -68.697 C -210.192 -72.102 -204.487 -73.764 -204.368 -73.798 C -180.762 -80.565 -160.947 -83.855 -143.793 -83.855 L -143.791 -83.855 C -143.213 -83.855 -142.644 -83.831 -142.068 -83.824 C -141.197 -83.841 -140.329 -83.855 -139.47 -83.855 L -139.46 -83.855 C -133.943 -83.855 -128.275 -83.189 -122.666 -82.099 C -116.706 -81.098 -110.728 -79.674 -104.549 -77.756 C -95.429 -74.926 -76.247 -65.387 -75.258 -64.785 C -74.561 -64.36 -73.867 -63.931 -73.174 -63.501 C -71.951 -62.744 -70.728 -61.986 -69.487 -61.257 C -69.481 -61.253 -69.467 -61.245 -69.461 -61.242 C -69.142 -61.055 -68.705 -60.899 -68.195 -60.79 C -67.041 -60.544 -65.881 -60.317 -64.721 -60.092 C -62.4 -59.639 -60 -59.172 -57.658 -58.541 C -26.217 -50.078 -11.431 -32.194 -6.573 -26.317 C -.121 -18.512 3.443 -9.74 4.019 -.244 C 4.407 6.143 4.001 12.46 3.553 17.797 " fill="#313d49"/>
<path transform="matrix(1,0,0,-1,161.8695,183.00641)" d="M 0 0 C -7.535 0 -14.369 -2.325 -19.475 -6.096 C -26.423 1.787 -39.964 3.676 -52.259 -2.23 C -66.487 -9.065 -73.637 -23.733 -68.228 -34.992 C -62.82 -46.252 -46.901 -49.839 -32.672 -43.004 C -28.882 -41.183 -25.613 -38.796 -22.931 -36.076 C -17.723 -41.623 -9.405 -45.234 0 -45.234 C 15.785 -45.234 28.581 -35.108 28.581 -22.617 C 28.581 -10.126 15.785 0 0 0 " fill="#d6dae8"/>
<path transform="matrix(1,0,0,-1,126.9038,183.1878)" d="M 0 0 C 0 0 10.344 -4.787 10.927 -11.499 C 11.51 -18.211 11.191 -41.809 -9.416 -46.135 C -30.023 -50.462 7.449 -47.402 16.258 -30.591 C 25.068 -13.781 13.088 -.962 0 0 " fill="#aaacb9"/>
<path transform="matrix(1,0,0,-1,175.9322,188.17652)" d="M 0 0 C 0 0 6.074 -12.605 5.034 -18.998 C 3.101 -30.879 -9.131 -37.14 -20.689 -37.149 C -23.476 -37.151 -11.477 -41.299 2.013 -33.827 C 17.976 -24.985 15 -7.349 0 0 " fill="#aaacb9"/>
<path transform="matrix(1,0,0,-1,170.1695,225.18271)" d="M 0 0 C -1.806 2.06 .123 5.665 .219 5.841 C .789 6.87 .419 8.167 -.609 8.741 C -1.641 9.319 -2.941 8.948 -3.515 7.917 C -4.59 5.993 -5.721 2.329 -4.464 -.804 C -5.72 -.946 -6.994 -1.044 -8.3 -1.044 C -10.571 -1.044 -12.764 -.799 -14.868 -.38 C -17.301 1.684 -14.833 6.38 -14.779 6.481 C -14.215 7.515 -14.594 8.811 -15.627 9.377 C -16.66 9.947 -17.96 9.565 -18.527 8.531 C -19.508 6.743 -20.468 3.89 -20.154 1.156 C -23.312 2.389 -26.126 4.079 -28.414 6.138 C -26.563 8.252 -25.009 10.56 -23.814 13.012 C -20.522 19.765 -20.3 26.795 -23.188 32.806 C -23.668 33.807 -24.225 34.755 -24.849 35.65 C -20.304 38.466 -14.556 40.163 -8.3 40.163 C 6.349 40.163 18.268 30.92 18.268 19.56 C 18.268 10.447 10.593 2.711 0 0 M -41.391 11.564 C -40.792 9.267 -39.162 5.924 -36.308 4.363 C -38.01 3.089 -39.852 1.945 -41.844 .988 C -43.367 .256 -44.933 -.348 -46.518 -.839 C -46.63 -.804 -46.743 -.773 -46.863 -.756 C -50.148 -.316 -50.545 5.676 -50.548 5.738 C -50.605 6.914 -51.611 7.815 -52.779 7.77 C -53.958 7.715 -54.87 6.716 -54.816 5.538 C -54.717 3.372 -54.029 .229 -52.282 -2.074 C -53.438 -2.209 -54.593 -2.28 -55.737 -2.28 C -64.511 -2.28 -71.605 1.584 -74.713 8.055 C -79.632 18.297 -72.891 31.789 -59.687 38.131 C -55.237 40.269 -50.433 41.398 -45.794 41.398 C -39.712 41.398 -34.44 39.539 -30.741 36.244 C -29.737 35.35 -28.85 34.351 -28.094 33.254 C -27.616 32.561 -27.187 31.832 -26.818 31.063 C -24.474 26.184 -24.693 20.4 -27.434 14.777 C -28.411 12.772 -29.681 10.883 -31.172 9.129 C -31.561 8.671 -31.972 8.227 -32.394 7.79 C -32.449 7.789 -32.502 7.796 -32.557 7.79 C -35.826 7.435 -37.229 12.54 -37.257 12.647 C -37.557 13.785 -38.72 14.464 -39.861 14.17 C -41.003 13.873 -41.688 12.706 -41.391 11.564 M -8.3 44.19 C -15.564 44.19 -22.236 42.132 -27.489 38.715 C -31.942 42.994 -38.372 45.425 -45.794 45.425 C -51.033 45.425 -56.44 44.158 -61.43 41.762 C -76.636 34.456 -84.224 18.555 -78.343 6.312 C -74.547 -1.59 -66.097 -6.307 -55.737 -6.307 C -50.498 -6.307 -45.091 -5.039 -40.101 -2.643 C -36.796 -1.055 -33.822 .974 -31.235 3.312 C -27.51 -.09 -22.636 -2.641 -17.117 -3.991 C -16.794 -4.171 -16.447 -4.287 -16.092 -4.287 C -16.028 -4.287 -15.965 -4.272 -15.902 -4.266 C -13.467 -4.773 -10.93 -5.071 -8.3 -5.071 C -5.688 -5.071 -3.166 -4.778 -.745 -4.28 C -.511 -4.272 -.283 -4.22 -.063 -4.138 C 12.813 -1.232 22.294 8.278 22.294 19.56 C 22.294 33.141 8.57 44.19 -8.3 44.19 " fill="#313d49"/>
<path transform="matrix(1,0,0,-1,123.2964,70.5956)" d="M 0 0 C 0 2.08 -.246 4.088 -.698 5.988 C -6.578 10.349 -15.113 15.108 -21.103 17.003 C -22.692 17.506 -24.182 18.016 -25.657 18.426 C -30.826 14.771 -33.833 9.492 -34.312 0 C -34.952 -12.702 -32.124 -11.871 -28.646 -15.753 C -24.516 -16.853 -16.956 -18.637 -9.994 -19.101 C -9.889 -19.099 -9.784 -19.101 -9.679 -19.1 C -3.95 -15.663 0 -8.403 0 0 " fill="#eeeeee"/>
<path transform="matrix(1,0,0,-1,113.556,85.40181)" d="M 0 0 L -.087 0 L -.12 -.001 C -6.78 .463 -14.049 2.202 -17.806 3.203 C -19 3.521 -19.898 3.78 -20.383 3.924 C -21.205 4.17 -21.833 4.622 -22.483 5.435 C -23.284 6.435 -23.958 7.524 -24.537 8.739 C -24.707 10.346 -24.735 12.303 -24.571 14.806 C -24.192 20.596 -22.475 25.844 -19.543 29.677 C -18.991 29.593 -18.409 29.476 -17.772 29.317 C -21.335 13.107 -17.924 5.192 -7.895 3.318 C .221 1.801 4.914 7.589 7.129 16.898 C 8.134 16.13 9.006 15.403 9.738 14.736 C 9.724 9.202 7.991 4.175 5.171 .408 C 2.962 .204 .686 .01 0 0 M 20.393 -.688 C 20.372 1.13 20.34 2.974 20.029 4.757 C 19.276 9.068 16.948 12.659 14.4 16.092 C 13.223 17.477 11.335 19.116 9.043 20.815 C 3.163 25.176 -5.373 29.936 -11.363 31.831 C -12.952 32.333 -14.441 32.843 -15.916 33.253 C -17.701 33.75 -19.464 34.099 -21.353 34.099 C -21.961 34.099 -22.581 34.063 -23.22 33.984 C -28.32 33.354 -29.951 32.153 -31.117 26.843 C -31.407 25.525 -31.541 24.211 -31.57 22.901 C -31.619 20.728 -31.374 18.564 -31.055 16.403 C -30.327 11.476 -29.029 6.757 -25.821 2.745 C -24.675 1.313 -23.335 .326 -21.606 -.191 C -21.098 -.342 -20.158 -.614 -18.905 -.947 C -18.914 -.937 -18.923 -.929 -18.932 -.919 C -18.922 -.922 -18.915 -.924 -18.905 -.926 C -14.776 -2.026 -7.216 -3.809 -.254 -4.274 C -.148 -4.272 .086 -4.271 .096 -4.271 C .084 -4.278 .073 -4.287 .062 -4.294 C 1.765 -4.269 3.467 -4.29 5.115 -4.29 C 5.556 -6.618 4.523 -8.478 2.67 -8.92 C 1.64 -9.166 .581 -9.375 -.472 -9.422 C -8.177 -9.763 -17.28 -9.644 -24.662 -7.201 C -28.476 -5.939 -31.073 -4.629 -34.506 -2.707 C -35.174 -2.333 -35.918 -1.804 -36.763 -2.388 C -36.696 -2.624 -36.695 -2.797 -36.609 -2.894 C -36.411 -3.119 -36.193 -3.34 -35.946 -3.507 C -30.633 -7.098 -25.834 -8.862 -19.663 -10.871 C -13.891 -12.75 -7.018 -13.039 -1.131 -13.362 C 3.247 -13.602 7.667 -13.309 12.055 -13.038 C 13.682 -12.938 15.318 -12.349 16.862 -11.755 C 18.117 -11.273 18.848 -10.129 19.209 -8.823 C 19.657 -7.207 18.871 -6.287 17.204 -6.587 C 15.794 -6.841 14.421 -7.299 13.02 -7.619 C 10.065 -8.292 9.113 -7.568 8.915 -4.524 C 8.9 -4.309 9.001 -4.086 9.095 -3.645 C 9.577 -3.549 9.939 -3.448 10.307 -3.408 C 13.094 -3.107 15.883 -2.834 18.667 -2.518 C 20.202 -2.344 20.411 -2.187 20.393 -.709 C 20.393 -.706 20.393 -.703 20.393 -.7 C 20.393 -.696 20.393 -.692 20.393 -.688 " fill="#313d49"/>
<path transform="matrix(1,0,0,-1,100.1653,64.94301)" d="M 0 0 C 0 -2.51 -2.035 -4.546 -4.546 -4.546 C -7.056 -4.546 -9.091 -2.51 -9.091 0 C -9.091 2.51 -7.056 4.546 -4.546 4.546 C -2.035 4.546 0 2.51 0 0 " fill="#ffffff"/>
<path transform="matrix(1,0,0,-1,115.4573,75.2661)" d="M 0 0 C -.361 -2.132 -1.843 -3.398 -3.434 -4.526 C -4.101 -4.999 -4.854 -4.592 -5.148 -3.942 C -5.356 -3.482 -5.129 -2.678 -4.852 -2.483 C -3.452 -1.495 -2.884 -1.682 -.682 .322 C .026 .719 .07 .395 0 0 " fill="#ffffff"/>
<path transform="matrix(1,0,0,-1,188.9092,64.94301)" d="M 0 0 C 0 -2.51 2.035 -4.546 4.546 -4.546 C 7.056 -4.546 9.091 -2.51 9.091 0 C 9.091 2.51 7.056 4.546 4.546 4.546 C 2.035 4.546 0 2.51 0 0 " fill="#ffffff"/>
<path transform="matrix(1,0,0,-1,173.6172,75.2661)" d="M 0 0 C .361 -2.132 1.843 -3.398 3.434 -4.526 C 4.101 -4.999 4.854 -4.592 5.148 -3.942 C 5.356 -3.482 5.129 -2.678 4.852 -2.483 C 3.452 -1.495 2.884 -1.682 .682 .322 C -.026 .719 -.07 .395 0 0 " fill="#ffffff"/>
</g>
</g>
</g>
</svg>
